Coordinates
version=1
nRows=31
nColumns=33
inDegrees=yes

Units are S.I. units (second, meters, Newtons, ...)
Angles are in degrees.

endheader
time	ground_thorax_rot_x	ground_thorax_rot_y	ground_thorax_rot_z	ground_thorax_tx	ground_thorax_ty	ground_thorax_tz	clav_prot_r	clav_elev_r	scapula_abduction_r	scapula_elevation_r	scapula_upward_rot_r	scapula_winging_r	shoulder_elv_r	plane_of_elev_r	axial_rot_r	elbow_flexion_r	pro_sup_r	wrist_flex_r	wrist_dev_r	clav_prot_l	clav_elev_l	scapula_abduction_l	scapula_elevation_l	scapula_upward_rot_l	scapula_winging_l	shoulder_elv_l	plane_of_elev_l	axial_rot_l	elbow_flexion_l	pro_sup_l	wrist_flex_l	wrist_dev_l	
4.1000	38.987657	3.267723	14.808737	-230.361455	855.060965	-10.955133	12.562152	36.493950	32.844253	45.000000	-44.999999	2075.620684	-473.452659	149.711469	-108.637037	12.980579	37.827505	18.149623	7.908896	12.346143	-45.000000	-34.649901	45.000000	-45.000000	460.525402	-2616.164072	146.352689	134.840942	370.172860	27.394736	9.519713	-22.598820	
4.1100	39.084328	3.229292	14.597020	-231.292650	856.759483	-10.800159	12.706043	36.517428	32.950165	45.000000	-44.999998	2075.394548	-473.510890	149.580141	-108.485229	12.925277	36.905985	18.136739	7.793295	12.161079	-45.000000	-34.623524	45.000000	-45.000000	460.805099	-2616.113251	146.263034	134.596569	370.304022	28.064085	9.501280	-22.580741	
4.1200	39.180085	3.184508	14.393499	-232.132212	858.402418	-10.642018	12.884520	36.562156	33.080975	45.000000	-44.999997	2075.153401	-473.587311	149.437888	-108.303224	12.865373	36.025491	18.137522	7.649104	11.914903	-45.000000	-34.602381	45.000000	-45.000000	461.121840	-2616.077294	146.134633	134.355230	370.437611	28.694936	9.522760	-22.538113	
4.1300	39.259896	3.169518	14.194331	-232.773084	859.928489	-10.475533	12.964496	36.569301	33.157003	45.000000	-44.999994	2075.008998	-473.591165	149.330535	-108.292132	12.830058	35.210449	18.132650	7.581882	11.837038	-45.000000	-34.627949	45.000000	-45.000000	461.325414	-2616.032513	146.087616	134.193465	370.543280	29.213636	9.495655	-22.532519	
4.1400	39.326930	3.172628	14.006808	-233.203781	861.328818	-10.300262	12.993780	36.558519	33.208260	45.000000	-44.999989	2074.915612	-473.556600	149.235580	-108.369315	12.814798	34.475828	18.126503	7.543799	11.838876	-45.000000	-34.687018	45.000000	-45.000000	461.474503	-2615.987500	146.071876	134.080873	370.634552	29.631612	9.452429	-22.540422	
4.1500	39.373759	3.215135	13.849445	-233.400027	862.588577	-10.114375	12.975255	36.536175	33.218470	45.000000	-44.999980	2074.881580	-473.471089	149.163627	-108.513024	12.825981	33.836648	18.134869	7.535057	11.906071	-45.000000	-34.784148	45.000000	-45.000000	461.576952	-2615.934644	146.083393	134.017771	370.715103	29.950864	9.400253	-22.554642	
4.1600	39.407565	3.275667	13.712835	-233.365068	863.710100	-9.916764	12.924340	36.502846	33.227184	45.000000	-44.999964	2074.873824	-473.369092	149.108635	-108.689314	12.856980	33.300046	18.147830	7.534564	12.009141	-45.000000	-34.895133	45.000000	-44.999999	461.646342	-2615.876657	146.094392	133.986055	370.783227	30.193555	9.341946	-22.570176	
4.1700	39.426386	3.361251	13.607979	-233.115609	864.705798	-9.706655	12.864225	36.469840	33.240583	45.000000	-44.999936	2074.878442	-473.259096	149.076786	-108.856990	12.904525	32.873799	18.175901	7.527783	12.108851	-45.000000	-35.014083	45.000000	-44.999999	461.704688	-2615.810659	146.085831	133.979028	370.841653	30.390765	9.289939	-22.575740	
4.1800	39.439384	3.438099	13.513252	-232.670169	865.591788	-9.483587	12.798268	36.430901	33.290140	45.000000	-44.999886	2074.872973	-473.164529	149.052016	-109.022129	12.963393	32.565855	18.201092	7.509557	12.212137	-45.000000	-35.119919	45.000000	-44.999998	461.739862	-2615.739325	146.054264	133.995498	370.891786	30.569158	9.229711	-22.581480	
4.1900	39.441573	3.515414	13.435219	-232.048700	866.387451	-9.248076	12.737598	36.395692	33.357290	45.000000	-44.999796	2074.865496	-473.073398	149.033319	-109.173648	13.033197	32.393109	18.235674	7.481102	12.305938	-45.000000	-35.223259	45.000000	-44.999996	461.756655	-2615.661286	146.002391	134.044748	370.938624	30.755042	9.166813	-22.584872	
4.2000	39.439790	3.569297	13.357543	-231.272247	867.114684	-9.001868	12.689243	36.362486	33.464061	45.000000	-44.999634	2074.839660	-473.002139	149.008855	-109.316467	13.112502	32.371225	18.268018	7.435644	12.388674	-45.000000	-35.314551	45.000000	-44.999993	461.750992	-2615.581422	145.926915	134.125309	370.985146	30.970339	9.093545	-22.591533	
4.2100	39.426235	3.629921	13.300140	-230.362392	867.796945	-8.747788	12.651455	36.337976	33.568021	45.000000	-44.999345	2074.813917	-472.924161	148.984442	-109.449184	13.201143	32.516748	18.306804	7.372971	12.454330	-45.000000	-35.424498	45.000000	-44.999987	461.731207	-2615.502855	145.842809	134.241681	371.033341	31.232511	9.013027	-22.599255	
4.2200	39.404165	3.682096	13.253060	-229.340636	868.458082	-8.489321	12.628427	36.321418	33.675789	45.000000	-44.998825	2074.779736	-472.844642	148.945612	-109.577270	13.304747	32.838987	18.348226	7.293655	12.503221	-45.000000	-35.543491	45.000000	-44.999976	461.694915	-2615.420017	145.751760	134.389348	371.089816	31.555377	8.920090	-22.611802	
4.2300	39.372180	3.740558	13.224158	-228.227623	869.121447	-8.230142	12.617181	36.315204	33.769528	45.000000	-44.997897	2074.749237	-472.747865	148.899644	-109.698605	13.420782	33.345102	18.399215	7.204496	12.534661	-45.000000	-35.679404	45.000000	-44.999957	461.646313	-2615.329681	145.659233	134.569527	371.154144	31.950290	8.818090	-22.627401	
4.2400	39.335897	3.779679	13.196301	-227.042099	869.809054	-7.973747	12.625184	36.315589	33.883561	45.000000	-44.996229	2074.706208	-472.652702	148.843300	-109.817045	13.555852	34.033265	18.455561	7.107741	12.549261	-45.000000	-35.805369	45.000000	-44.999923	461.584385	-2615.221677	145.554545	134.778328	371.227653	32.425803	8.704035	-22.647503	
4.2500	39.301538	3.792749	13.166725	-225.800090	870.540861	-7.723421	12.656784	36.323800	34.027519	45.000000	-44.993259	2074.646221	-472.559918	148.775026	-109.931466	13.701661	34.906232	18.512119	7.002797	12.544196	-45.000000	-35.912426	45.000000	-44.999862	461.515744	-2615.098672	145.435062	135.017164	371.311195	32.989458	8.578614	-22.671673	
4.2600	39.270188	3.765907	13.122991	-224.513971	871.334551	-7.482184	12.716221	36.339055	34.211087	45.000000	-44.987885	2074.562002	-472.474718	148.684022	-110.043625	13.867786	35.959247	18.569012	6.891941	12.521087	-45.000000	-35.990209	45.000000	-44.999753	461.441176	-2614.952806	145.296751	135.285341	371.410114	33.642719	8.440933	-22.700687	
4.2700	39.242305	3.725164	13.073619	-223.191681	872.205723	-7.252737	12.773805	36.355576	34.412332	45.000000	-44.978409	2074.471420	-472.380573	148.591896	-110.166161	14.044321	37.169282	18.621774	6.770834	12.489691	-45.000000	-36.063680	45.000000	-44.999557	461.362807	-2614.795613	145.149706	135.578331	371.519782	34.372905	8.297921	-22.736476	
4.2800	39.210094	3.685953	13.020150	-221.836262	873.168168	-7.037092	12.815314	36.371978	34.612399	45.000000	-44.961014	2074.378179	-472.273559	148.501341	-110.310990	14.239569	38.502405	18.671806	6.640076	12.468000	-45.000000	-36.156610	45.000000	-44.999206	461.288780	-2614.626800	144.992580	135.901586	371.633028	35.154761	8.148258	-22.773527	
4.2900	39.180131	3.644732	12.961955	-220.446234	874.233816	-6.836211	12.851752	36.392146	34.823520	45.000000	-44.931030	2074.275041	-472.159584	148.412300	-110.469495	14.441988	39.947274	18.715664	6.500931	12.458136	-45.000000	-36.261396	45.000000	-44.998578	461.220798	-2614.454199	144.824304	136.267206	371.745600	35.969572	7.992409	-22.807911	
4.3000	39.147575	3.602952	12.898918	-219.016411	875.412428	-6.649501	12.867089	36.416146	35.042491	45.000000	-44.874039	2074.158591	-472.041739	148.325639	-110.641176	14.663299	41.480354	18.754854	6.353523	12.466162	-45.000000	-36.378999	45.000000	-44.997453	461.166938	-2614.269436	144.638334	136.682154	371.855769	36.791743	7.826607	-22.833813	
4.3100	39.116863	3.554789	12.825226	-217.539215	876.710756	-6.474637	12.869975	36.447251	35.274886	45.000000	-44.781113	2074.030125	-471.920956	148.242070	-110.815380	14.892067	43.089055	18.787135	6.198269	12.488548	-45.000000	-36.501631	45.000000	-44.995435	461.120596	-2614.075917	144.435744	137.156940	371.960719	37.601342	7.656828	-22.852104	
4.3200	39.085225	3.497782	12.735084	-216.006138	878.131492	-6.307683	12.855359	36.490379	35.512987	45.000000	-44.625388	2073.887306	-471.800590	148.161781	-110.986746	15.135606	44.754585	18.814985	6.037941	12.524023	-45.000000	-36.631785	45.000000	-44.991830	461.081992	-2613.868257	144.213138	137.695006	372.061871	38.378057	7.480858	-22.859936	
4.3300	39.061521	3.410674	12.611443	-214.409127	879.672146	-6.143706	12.880318	36.554516	35.778902	45.000000	-44.415031	2073.713239	-471.696614	148.057736	-111.131211	15.375541	46.499678	18.831561	5.872819	12.556045	-45.000000	-36.756217	45.000000	-44.985345	461.033096	-2613.654039	143.975067	138.307530	372.156040	39.126088	7.307908	-22.862806	
4.3400	39.038171	3.317597	12.462189	-212.741611	881.324270	-5.977641	12.898399	36.634667	36.040969	45.000000	-44.126270	2073.525824	-471.596702	147.952355	-111.262037	15.619699	48.306424	18.838363	5.700587	12.590696	-45.000000	-36.899908	45.000000	-44.973804	460.975917	-2613.431794	143.727444	138.980840	372.242477	39.834248	7.139735	-22.861356	
4.3500	39.015592	3.226035	12.287325	-210.998632	883.073511	-5.805214	12.915291	36.727715	36.289701	45.000000	-43.762110	2073.335673	-471.495738	147.848824	-111.390024	15.856905	50.159143	18.834302	5.522394	12.629259	-45.000000	-37.071499	45.000000	-44.952920	460.903234	-2613.209282	143.476666	139.713696	372.316050	40.493153	6.986460	-22.860613	
4.3600	38.991170	3.147999	12.094666	-209.176703	884.900193	-5.623711	12.897598	36.828008	36.512417	45.000000	-43.302808	2073.153286	-471.385301	147.769331	-111.539217	16.096026	52.022237	18.823339	5.341152	12.677199	-45.000000	-37.273441	45.000000	-44.916102	460.824953	-2612.982016	143.218374	140.489689	372.382187	41.084669	6.846937	-22.860640	
4.3700	38.969894	3.064941	11.878710	-207.273163	886.780628	-5.432421	12.902198	36.938456	36.742060	45.000000	-42.791625	2072.959636	-471.278972	147.683628	-111.703342	16.325638	53.898541	18.801147	5.158592	12.722071	-45.000000	-37.486675	45.000000	-44.848499	460.736825	-2612.755446	142.955370	141.316458	372.438529	41.607134	6.727148	-22.865485	
4.3800	38.945134	2.998332	11.657731	-205.285645	888.688559	-5.232680	12.907831	37.056446	36.970420	45.000000	-42.240995	2072.767844	-471.166067	147.612570	-111.904370	16.555384	55.769047	18.765565	4.969430	12.754611	-45.000000	-37.717816	45.000000	-44.732012	460.644744	-2612.524289	142.701594	142.166394	372.488387	42.045809	6.627807	-22.877057	
4.3900	38.917041	2.927879	11.419279	-203.211595	890.596755	-5.027518	12.898056	37.174403	37.203393	45.000000	-41.657545	2072.585335	-471.047725	147.544035	-112.151273	16.779297	57.615940	18.723010	4.783423	12.790556	-45.000000	-37.963939	45.000000	-44.510482	460.560622	-2612.299415	142.458043	143.034285	372.522894	42.386567	6.550390	-22.892465	
4.4000	38.885533	2.862727	11.168802	-201.048307	892.478025	-4.820978	12.887631	37.292257	37.436383	45.000000	-41.052321	2072.415226	-470.921169	147.479810	-112.454199	16.995534	59.427467	18.669992	4.599205	12.810306	-45.000000	-38.229098	45.000000	-44.168563	460.483319	-2612.080444	142.235334	143.881406	372.544395	42.614040	6.496011	-22.912692	
